<svg width="12" height="7" viewBox="0 0 12 7" fill="none" xmlns="http://www.w3.org/2000/svg">
<path d="M11.9999 1.49609C12.0004 1.62413 11.9721 1.75064 11.9172 1.86632C11.8624 1.98201 11.7823 2.08393 11.6828 2.1646L6.54046 6.3042C6.3871 6.43026 6.19474 6.49918 5.99622 6.49918C5.7977 6.49918 5.60534 6.43026 5.45199 6.3042L0.309616 2.0189C0.134589 1.87342 0.0245216 1.66437 0.00362666 1.43774C-0.0172683 1.21111 0.052721 0.985464 0.198198 0.810438C0.343674 0.635412 0.552721 0.525344 0.779351 0.504449C1.00598 0.483554 1.23163 0.553543 1.40665 0.69902L6.00051 4.53009L10.5944 0.82758C10.7202 0.722775 10.8734 0.656201 11.0358 0.635735C11.1983 0.615269 11.3632 0.641766 11.5111 0.712093C11.6589 0.78242 11.7835 0.893633 11.8702 1.03257C11.9568 1.17151 12.0019 1.33236 11.9999 1.49609Z" fill="white"/>
</svg>
