<svg width="14" height="15" viewBox="0 0 14 15" fill="none" xmlns="http://www.w3.org/2000/svg">
<path d="M5.2852 13.5C4.29282 13.1917 3.39405 12.6214 2.6764 11.8446C2.9073 11.5597 3.05124 11.2095 3.0898 10.839C3.12835 10.4685 3.05977 10.0945 2.89283 9.76474C2.72589 9.43501 2.46819 9.1646 2.15269 8.98811C1.83719 8.81162 1.47825 8.73709 1.1218 8.77403C1.0406 8.36021 0.999789 7.9389 1 7.51654C1 6.86423 1.096 6.23502 1.2748 5.64388H1.3C1.60593 5.64398 1.90683 5.56297 2.1743 5.40847C2.44177 5.25398 2.66698 5.03112 2.82866 4.76092C2.99034 4.49073 3.08316 4.18212 3.09836 3.86423C3.11355 3.54635 3.05062 3.22968 2.9155 2.94413C3.61888 2.26274 4.46952 1.76742 5.3956 1.5C5.54631 1.80787 5.77595 2.06635 6.05911 2.24686C6.34227 2.42737 6.66791 2.52287 7 2.52278C7.33209 2.52287 7.65773 2.42737 7.94089 2.24686C8.22405 2.06635 8.45369 1.80787 8.6044 1.5C9.53048 1.76742 10.3811 2.26274 11.0845 2.94413C10.9484 3.23168 10.8855 3.55076 10.9019 3.87083C10.9182 4.19091 11.0133 4.50125 11.1779 4.77217C11.3426 5.04308 11.5713 5.2655 11.8422 5.41813C12.1131 5.57076 12.4171 5.64849 12.7252 5.64388C12.9079 6.24991 13.0006 6.88141 13 7.51654C13 7.94725 12.958 8.36798 12.8782 8.77403C12.5217 8.73709 12.1628 8.81162 11.8473 8.98811C11.5318 9.1646 11.2741 9.43501 11.1072 9.76474C10.9402 10.0945 10.8716 10.4685 10.9102 10.839C10.9488 11.2095 11.0927 11.5597 11.3236 11.8446C10.6059 12.6214 9.70718 13.1917 8.7148 13.5C8.59826 13.1221 8.36941 12.7925 8.06123 12.5587C7.75304 12.3248 7.38145 12.1988 7 12.1988C6.61855 12.1988 6.24695 12.3248 5.93877 12.5587C5.63059 12.7925 5.40173 13.1221 5.2852 13.5Z" stroke="white" stroke-width="1.2" stroke-linejoin="round"/>
<path d="M7.00039 9.70085C7.27617 9.70085 7.54924 9.64434 7.80402 9.53455C8.05881 9.42475 8.29031 9.26382 8.48531 9.06095C8.68032 8.85807 8.835 8.61723 8.94054 8.35216C9.04607 8.08709 9.10039 7.80299 9.10039 7.51608C9.10039 7.22918 9.04607 6.94508 8.94054 6.68001C8.835 6.41494 8.68032 6.17409 8.48531 5.97122C8.29031 5.76834 8.05881 5.60741 7.80402 5.49762C7.54924 5.38782 7.27617 5.33131 7.00039 5.33131C6.44344 5.33131 5.90929 5.56149 5.51547 5.97122C5.12164 6.38094 4.90039 6.93665 4.90039 7.51608C4.90039 8.09552 5.12164 8.65122 5.51547 9.06095C5.90929 9.47067 6.44344 9.70085 7.00039 9.70085V9.70085Z" stroke="white" stroke-width="1.2" stroke-linejoin="round"/>
</svg>
