<svg width="14" height="15" viewBox="0 0 14 15" fill="none" xmlns="http://www.w3.org/2000/svg">
<path d="M6.4445 1.88403C6.63649 1.37199 7.36306 1.37199 7.55565 1.88403L8.79759 5.36279C8.84092 5.47611 8.91721 5.57348 9.01641 5.64205C9.1156 5.71061 9.23302 5.74715 9.35317 5.74683H12.4052C12.9692 5.74683 13.2152 6.45665 12.7718 6.80429L10.5999 8.78027C10.5026 8.8559 10.4315 8.96075 10.3968 9.07977C10.3621 9.19879 10.3656 9.32587 10.4067 9.44278L11.1999 12.8421C11.3931 13.3881 10.7679 13.8571 10.2951 13.5209L7.34506 11.6281C7.24403 11.5563 7.12355 11.5178 7.00007 11.5178C6.87659 11.5178 6.75612 11.5563 6.65509 11.6281L3.70502 13.5209C3.23284 13.8571 2.60707 13.3875 2.80026 12.8421L3.59342 9.44278C3.63457 9.32587 3.63804 9.19879 3.60333 9.07977C3.56862 8.96075 3.49752 8.8559 3.40023 8.78027L1.22833 6.80429C0.784349 6.45665 1.03154 5.74683 1.59431 5.74683H4.64638C4.76655 5.74723 4.88401 5.71073 4.98321 5.64216C5.08242 5.57358 5.1587 5.47616 5.20195 5.36279L6.4439 1.88403H6.4445Z" stroke="white" stroke-width="1.19995" stroke-linecap="round" stroke-linejoin="round"/>
</svg>
