<svg width="12" height="13" viewBox="0 0 12 13" fill="none" xmlns="http://www.w3.org/2000/svg">
<path d="M6 6.5C6.79565 6.5 7.55871 6.18393 8.12132 5.62132C8.68393 5.05871 9 4.29565 9 3.5C9 2.70435 8.68393 1.94129 8.12132 1.37868C7.55871 0.816071 6.79565 0.5 6 0.5C5.20435 0.5 4.44129 0.816071 3.87868 1.37868C3.31607 1.94129 3 2.70435 3 3.5C3 4.29565 3.31607 5.05871 3.87868 5.62132C4.44129 6.18393 5.20435 6.5 6 6.5V6.5ZM8 3.5C8 4.03043 7.78929 4.53914 7.41421 4.91421C7.03914 5.28929 6.53043 5.5 6 5.5C5.46957 5.5 4.96086 5.28929 4.58579 4.91421C4.21071 4.53914 4 4.03043 4 3.5C4 2.96957 4.21071 2.46086 4.58579 2.08579C4.96086 1.71071 5.46957 1.5 6 1.5C6.53043 1.5 7.03914 1.71071 7.41421 2.08579C7.78929 2.46086 8 2.96957 8 3.5V3.5ZM12 11.5C12 12.5 11 12.5 11 12.5H1C1 12.5 0 12.5 0 11.5C0 10.5 1 7.5 6 7.5C11 7.5 12 10.5 12 11.5ZM11 11.496C10.999 11.25 10.846 10.51 10.168 9.832C9.516 9.18 8.289 8.5 6 8.5C3.71 8.5 2.484 9.18 1.832 9.832C1.154 10.51 1.002 11.25 1 11.496H11Z" fill="white"/>
</svg>
