<svg width="14" height="15" viewBox="0 0 14 15" fill="none" xmlns="http://www.w3.org/2000/svg">
<path d="M8.2 4.10077V2.85949C8.19999 2.67145 8.16555 2.48545 8.09886 2.31325C8.03217 2.14106 7.93467 1.98641 7.81253 1.85908C7.69039 1.73175 7.54627 1.63452 7.38927 1.57352C7.23227 1.51252 7.0658 1.48908 6.9004 1.50469L2.1004 1.95742C1.80043 1.98573 1.52081 2.14073 1.31698 2.39167C1.11315 2.64262 1.00001 2.97119 1 3.31222V11.6871C1.00001 12.0281 1.11315 12.3567 1.31698 12.6076C1.52081 12.8586 1.80043 13.0136 2.1004 13.0419L6.9004 13.4953C7.06585 13.5109 7.23237 13.4875 7.38941 13.4264C7.54645 13.3654 7.6906 13.2681 7.81275 13.1407C7.9349 13.0133 8.03238 12.8586 8.09904 12.6863C8.1657 12.514 8.20008 12.3279 8.2 12.1398V10.8986M7.6 7.49966H13H7.6ZM13 7.49966L11.0002 4.78055L13 7.49966ZM13 7.49966L11.0002 10.2188L13 7.49966Z" stroke="white" stroke-width="1.2" stroke-linecap="round" stroke-linejoin="round"/>
</svg>
