<svg width="18" height="24" viewBox="0 0 18 24" fill="none" xmlns="http://www.w3.org/2000/svg">
<path d="M14.0696 0V11.6862C14.0696 12.6251 13.9279 13.498 13.6445 14.3051C13.3692 15.1122 12.9441 15.8122 12.3692 16.4052C11.8024 16.9981 11.0899 17.4635 10.2316 17.8011C9.37328 18.1388 8.36518 18.3076 7.20729 18.3076C6.11417 18.3076 5.14656 18.1511 4.30445 17.8382C3.47044 17.517 2.77004 17.064 2.20324 16.4793C1.64453 15.8946 1.21943 15.1946 0.927935 14.3792C0.636436 13.5557 0.490688 12.6415 0.490688 11.6368V0H4.24372V11.3527C4.24372 12.0198 4.3085 12.5921 4.43806 13.0698C4.56761 13.5392 4.75789 13.9263 5.00891 14.231C5.26802 14.5275 5.58785 14.7457 5.96842 14.8857C6.34899 15.0257 6.79433 15.0957 7.30445 15.0957C8.36518 15.0957 9.13036 14.7828 9.6 14.1569C10.0777 13.531 10.3166 12.588 10.3166 11.328V0H14.0696Z" fill="white"/>
<path d="M17.8008 5.6924V17.3786C17.8008 18.3175 17.6591 19.1904 17.3757 19.9975C17.1004 20.8046 16.6753 21.5046 16.1004 22.0976C15.5336 22.6906 14.8211 23.1559 13.9628 23.4935C13.1045 23.8312 12.0964 24 10.9385 24C9.84534 24 8.87773 23.8435 8.03563 23.5306C7.20162 23.2094 6.50121 22.7564 5.93441 22.1717C5.37571 21.587 4.95061 20.887 4.65911 20.0716C4.36761 19.2481 4.22186 18.334 4.22186 17.3292V5.6924H7.9749V17.0451C7.9749 17.7122 8.03968 18.2845 8.16923 18.7622C8.29879 19.2316 8.48907 19.6187 8.74008 19.9234C8.99919 20.2199 9.31903 20.4381 9.6996 20.5781C10.0802 20.7181 10.5255 20.7881 11.0356 20.7881C12.0964 20.7881 12.8615 20.4752 13.3312 19.8493C13.8089 19.2234 14.0478 18.2804 14.0478 17.0204V5.6924H17.8008Z" fill="black"/>
<path d="M18 18.2088H6.51012C5.58704 18.2088 4.72875 18.0646 3.93522 17.7764C3.1417 17.4964 2.45344 17.064 1.87045 16.4793C1.28745 15.9028 0.82996 15.1781 0.497976 14.3051C0.165992 13.4322 0 12.4068 0 11.2292C0 10.1174 0.153846 9.13321 0.461538 8.27671C0.777328 7.42845 1.22267 6.71608 1.79757 6.13959C2.37247 5.57134 3.06073 5.13897 3.86235 4.8425C4.67206 4.54602 5.57085 4.39778 6.5587 4.39778H18V8.21495H6.83806C6.18219 8.21495 5.61943 8.28083 5.1498 8.4126C4.68826 8.54437 4.30769 8.7379 4.0081 8.99321C3.7166 9.25674 3.50202 9.58205 3.36437 9.96912C3.22672 10.3562 3.15789 10.8091 3.15789 11.328C3.15789 12.4068 3.46559 13.1851 4.08097 13.6628C4.69636 14.1487 5.62348 14.3916 6.86235 14.3916H18V18.2088Z" fill="#FF6600"/>
</svg>
