<svg width="9" height="14" viewBox="0 0 9 14" fill="none" xmlns="http://www.w3.org/2000/svg">
<path d="M5.00309 12.9999C4.87505 13.0004 4.74854 12.9721 4.63285 12.9172C4.51717 12.8624 4.41525 12.7823 4.33458 12.6828L0.194971 7.54046C0.0689131 7.3871 0 7.19474 0 6.99622C0 6.7977 0.0689131 6.60534 0.194971 6.45199L4.48028 1.30962C4.62576 1.13459 4.8348 1.02452 5.06143 1.00363C5.28806 0.982732 5.51371 1.05272 5.68874 1.1982C5.86376 1.34367 5.97383 1.55272 5.99473 1.77935C6.01562 2.00598 5.94563 2.23163 5.80016 2.40665L1.96909 7.00051L5.6716 11.5944C5.7764 11.7202 5.84297 11.8734 5.86344 12.0358C5.88391 12.1983 5.85741 12.3632 5.78708 12.5111C5.71676 12.6589 5.60554 12.7835 5.4666 12.8702C5.32767 12.9568 5.16682 13.0019 5.00309 12.9999Z" fill="white"/>
<path d="M8.5 1V13" stroke="#FF6600" stroke-linecap="round"/>
</svg>
