<svg width="11" height="14" viewBox="0 0 11 14" fill="none" xmlns="http://www.w3.org/2000/svg">
<path d="M5.70272 1.00006C5.83183 0.999624 5.9594 1.02788 6.07605 1.08276C6.1927 1.13764 6.29547 1.21774 6.37681 1.31717L10.551 6.45954C10.6781 6.6129 10.7476 6.80526 10.7476 7.00378C10.7476 7.2023 10.6781 7.39466 10.551 7.54801L6.22989 12.6904C6.0832 12.8654 5.87241 12.9755 5.64389 12.9964C5.41537 13.0173 5.18784 12.9473 5.01135 12.8018C4.83486 12.6563 4.72388 12.4473 4.70281 12.2206C4.68174 11.994 4.75231 11.7684 4.899 11.5933L8.76204 6.99949L5.02863 2.40564C4.92295 2.27984 4.85582 2.12665 4.83519 1.96419C4.81455 1.80173 4.84127 1.63682 4.91218 1.48895C4.9831 1.34108 5.09524 1.21646 5.23534 1.12981C5.37543 1.04317 5.53763 0.998146 5.70272 1.00006Z" fill="white"/>
<path d="M1 13L1 1" stroke="#17CAE5" stroke-linecap="round"/>
</svg>
