<svg width="13" height="14" viewBox="0 0 13 14" fill="none" xmlns="http://www.w3.org/2000/svg">
<g style="mix-blend-mode:darken">
<rect y="0.5" width="13" height="13" fill="#D9D9D9"/>
</g>
<path d="M11.9166 12.4167L9.35884 9.85431L11.9166 12.4167ZM10.7763 6.42983C10.7763 7.7152 10.2657 8.94793 9.35679 9.85682C8.4479 10.7657 7.21517 11.2763 5.9298 11.2763C4.64443 11.2763 3.41171 10.7657 2.50282 9.85682C1.59392 8.94793 1.08331 7.7152 1.08331 6.42983C1.08331 5.14447 1.59392 3.91174 2.50282 3.00285C3.41171 2.09395 4.64443 1.58334 5.9298 1.58334C7.21517 1.58334 8.4479 2.09395 9.35679 3.00285C10.2657 3.91174 10.7763 5.14447 10.7763 6.42983V6.42983Z" stroke="#ABABAB" stroke-width="1.14035" stroke-linecap="round" stroke-linejoin="round"/>
</svg>
