<svg width="21" height="20" viewBox="0 0 21 20" fill="none" xmlns="http://www.w3.org/2000/svg">
<path d="M14.9624 5.5729H17.7357C17.9035 5.57306 18.0652 5.63548 18.1895 5.74807C18.3138 5.86065 18.392 6.01538 18.4087 6.18227L18.8218 10.3125H17.4595L17.1209 6.92706H14.9624V8.95831C14.9624 9.13789 14.891 9.31011 14.7641 9.43708C14.6371 9.56406 14.4649 9.6354 14.2853 9.6354C14.1057 9.6354 13.9335 9.56406 13.8065 9.43708C13.6795 9.31011 13.6082 9.13789 13.6082 8.95831V6.92706H8.19155V8.95831C8.19155 9.13789 8.12021 9.31011 7.99324 9.43708C7.86626 9.56406 7.69404 9.6354 7.51447 9.6354C7.33489 9.6354 7.16267 9.56406 7.0357 9.43708C6.90872 9.31011 6.83738 9.13789 6.83738 8.95831V6.92706H4.67749L3.59415 17.7604H10.8999V19.1146H2.8453C2.75073 19.1145 2.65723 19.0946 2.57082 19.0561C2.48441 19.0177 2.40701 18.9616 2.34361 18.8914C2.2802 18.8213 2.2322 18.7386 2.20269 18.6488C2.17318 18.5589 2.16282 18.4639 2.17228 18.3698L3.39103 6.18227C3.4078 6.01538 3.48593 5.86065 3.61027 5.74807C3.73461 5.63548 3.89631 5.57306 4.06405 5.5729H6.83738V5.10029C6.83738 2.75217 8.64655 0.833313 10.8999 0.833313C13.1532 0.833313 14.9624 2.75217 14.9624 5.10029V5.57425V5.5729ZM13.6082 5.5729V5.10029C13.6082 3.48342 12.3868 2.18748 10.8999 2.18748C9.41301 2.18748 8.19155 3.48342 8.19155 5.10029V5.57425H13.6082V5.5729ZM17.8698 15.6479C17.9315 15.5807 18.0063 15.5267 18.0894 15.4891C18.1726 15.4515 18.2625 15.4311 18.3538 15.4291C18.445 15.4272 18.5358 15.4437 18.6205 15.4777C18.7052 15.5117 18.7821 15.5625 18.8467 15.627C18.9113 15.6915 18.9622 15.7684 18.9963 15.853C19.0304 15.9377 19.0471 16.0284 19.0452 16.1196C19.0434 16.2109 19.0232 16.3008 18.9857 16.3841C18.9482 16.4673 18.8943 16.5421 18.8272 16.6039L16.1188 19.3123C15.9919 19.4392 15.8197 19.5105 15.6401 19.5105C15.4606 19.5105 15.2884 19.4392 15.1614 19.3123L12.4531 16.6039C12.3884 16.5415 12.3369 16.4668 12.3014 16.3842C12.2659 16.3016 12.2472 16.2127 12.2464 16.1228C12.2457 16.0329 12.2628 15.9437 12.2968 15.8605C12.3309 15.7773 12.3811 15.7017 12.4447 15.6382C12.5083 15.5746 12.5839 15.5243 12.6671 15.4903C12.7503 15.4562 12.8395 15.4391 12.9294 15.4399C13.0193 15.4406 13.1081 15.4593 13.1907 15.4948C13.2733 15.5303 13.348 15.5819 13.4105 15.6465L14.9624 17.1998V12.3437C14.9624 12.1642 15.0337 11.9919 15.1607 11.865C15.2877 11.738 15.4599 11.6666 15.6395 11.6666C15.819 11.6666 15.9913 11.738 16.1182 11.865C16.2452 11.9919 16.3165 12.1642 16.3165 12.3437V17.1998L17.8698 15.6465V15.6479Z" fill="#DE283B"/>
</svg>
