<svg width="21" height="20" viewBox="0 0 21 20" fill="none" xmlns="http://www.w3.org/2000/svg">
<path d="M10.3836 9.99999C12.7174 9.99999 14.6093 8.13451 14.6093 5.83332C14.6093 3.53214 12.7174 1.66666 10.3836 1.66666C8.04979 1.66666 6.15787 3.53214 6.15787 5.83332C6.15787 8.13451 8.04979 9.99999 10.3836 9.99999Z" stroke="#20AEF3" stroke-width="1.5"/>
<path d="M13.7644 13.3333H18.8353M14.6096 18.3333H4.69261C4.45291 18.3334 4.21595 18.2831 3.99743 18.186C3.77892 18.0888 3.58387 17.947 3.42521 17.7698C3.26656 17.5926 3.14793 17.3842 3.0772 17.1584C3.00648 16.9326 2.98528 16.6945 3.015 16.46L3.34461 13.8566C3.42126 13.2518 3.71936 12.6955 4.18285 12.2922C4.64634 11.8889 5.24329 11.6664 5.86145 11.6666H6.1581L14.6096 18.3333ZM16.2998 10.8333V15.8333V10.8333Z" stroke="#20AEF3" stroke-width="1.5" stroke-linecap="round" stroke-linejoin="round"/>
</svg>
