<svg width="17" height="20" viewBox="0 0 17 20" fill="none" xmlns="http://www.w3.org/2000/svg">
<path d="M12.3455 2.84088H14.4731C14.7011 2.84088 14.9197 2.93234 15.0809 3.09513C15.2421 3.25792 15.3327 3.47872 15.3327 3.70894V18.032C15.3327 18.2622 15.2421 18.483 15.0809 18.6458C14.9197 18.8086 14.7011 18.9 14.4731 18.9H2.43847C2.21049 18.9 1.99184 18.8086 1.83063 18.6458C1.66942 18.483 1.57886 18.2622 1.57886 18.032V3.70894C1.57886 3.47872 1.66942 3.25792 1.83063 3.09513C1.99184 2.93234 2.21049 2.84088 2.43847 2.84088H5.44713V4.14297H11.4644V2.84088H12.3455Z" stroke="#17CAE5" stroke-width="1.5" stroke-linejoin="round"/>
<path d="M9.74546 8.04891L6.307 11.5216H10.6068L7.16662 14.9938M5.44739 1.53845H11.4647V4.14264H5.44739V1.53845Z" stroke="#17CAE5" stroke-width="1.5" stroke-linecap="round" stroke-linejoin="round"/>
</svg>
