<svg width="15" height="14" viewBox="0 0 15 14" fill="none" xmlns="http://www.w3.org/2000/svg">
<path d="M4.66314 11.0784L5.18555 11.317C5.99449 11.686 6.89787 11.8785 7.81516 11.8773H7.81755C8.92345 11.8773 10.0045 11.5974 10.924 11.0731C11.8436 10.5489 12.5602 9.80365 12.9834 8.93178C13.4067 8.05991 13.5174 7.10053 13.3016 6.17495C13.0859 5.24938 12.5533 4.39919 11.7714 3.73189C10.9894 3.06459 9.99305 2.61015 8.9084 2.42604C7.82376 2.24193 6.69949 2.33642 5.67777 2.69757C4.65606 3.05871 3.78278 3.67028 3.16838 4.45494C2.55397 5.2396 2.22604 6.16211 2.22604 7.10582V7.10787C2.22462 7.89062 2.45019 8.66151 2.88264 9.35182L3.16222 9.79761L2.73247 11.4451L4.66314 11.0784V11.0784ZM0.62846 13.2406L1.47358 9.9946C0.888822 9.05975 0.597812 8.01159 0.628902 6.95223C0.659992 5.89288 1.01212 4.85846 1.65098 3.94976C2.28984 3.04106 3.19364 2.28907 4.27433 1.76706C5.35502 1.24505 6.57574 0.970818 7.81755 0.971085C9.72422 0.971085 11.5528 1.61742 12.901 2.76791C14.2492 3.91839 15.0066 5.47879 15.0066 7.10582C15.007 8.16551 14.6856 9.20719 14.0739 10.1294C13.4621 11.0516 12.5809 11.8228 11.516 12.368C10.4512 12.9132 9.23896 13.2136 7.99754 13.2402C6.75612 13.2667 5.52781 13.0184 4.43229 12.5194L0.62846 13.2406Z" fill="white"/>
</svg>
