<svg width="15" height="13" viewBox="0 0 15 13" fill="none" xmlns="http://www.w3.org/2000/svg">
<path d="M14.4392 9.03825H4.89368L5.37296 8.11188L13.3364 8.09819C13.6057 8.09819 13.8365 7.91565 13.8846 7.66314L14.9874 1.80524C15.0163 1.65161 14.973 1.49341 14.8672 1.37324C14.8149 1.3141 14.7497 1.26646 14.6761 1.23363C14.6024 1.20079 14.5222 1.18355 14.4408 1.1831L4.31021 1.15115L4.22365 0.764786C4.16915 0.518361 3.93512 0.338867 3.66903 0.338867H1.19249C1.04242 0.338867 0.898494 0.39544 0.792378 0.49614C0.686263 0.596839 0.626648 0.733418 0.626648 0.875829C0.626648 1.01824 0.686263 1.15482 0.792378 1.25552C0.898494 1.35622 1.04242 1.41279 1.19249 1.41279H3.21059L3.58889 3.11951L4.5202 7.39847L3.3212 9.25578C3.25893 9.33553 3.22143 9.43022 3.21293 9.52915C3.20443 9.62808 3.22527 9.72729 3.27311 9.81555C3.36928 9.99657 3.56324 10.1107 3.77803 10.1107H4.78468C4.57008 10.3811 4.45416 10.7106 4.45448 11.0492C4.45448 11.9102 5.19183 12.6099 6.09909 12.6099C7.00636 12.6099 7.74371 11.9102 7.74371 11.0492C7.74371 10.71 7.6251 10.3799 7.41351 10.1107H9.99585C9.78125 10.3811 9.66533 10.7106 9.66564 11.0492C9.66564 11.9102 10.403 12.6099 11.3103 12.6099C12.2175 12.6099 12.9549 11.9102 12.9549 11.0492C12.9549 10.71 12.8363 10.3799 12.6247 10.1107H14.4408C14.7518 10.1107 15.0066 9.87032 15.0066 9.57369C15.0057 9.43143 14.9455 9.29529 14.8392 9.19498C14.7329 9.09467 14.5891 9.03833 14.4392 9.03825ZM4.54584 2.20987L13.7756 2.23877L12.8715 7.04252L5.62142 7.05469L4.54584 2.20987ZM6.09909 11.5299C5.82018 11.5299 5.59256 11.3139 5.59256 11.0492C5.59256 10.7845 5.82018 10.5685 6.09909 10.5685C6.37801 10.5685 6.60563 10.7845 6.60563 11.0492C6.60563 11.1767 6.55226 11.2989 6.45727 11.3891C6.36227 11.4792 6.23344 11.5299 6.09909 11.5299ZM11.3103 11.5299C11.0314 11.5299 10.8037 11.3139 10.8037 11.0492C10.8037 10.7845 11.0314 10.5685 11.3103 10.5685C11.5892 10.5685 11.8168 10.7845 11.8168 11.0492C11.8168 11.1767 11.7634 11.2989 11.6684 11.3891C11.5734 11.4792 11.4446 11.5299 11.3103 11.5299Z" fill="white"/>
</svg>
