<svg width="15" height="15" viewBox="0 0 15 15" fill="none" xmlns="http://www.w3.org/2000/svg">
<path d="M13.8182 12.3147V7.67681C13.8182 7.35413 13.7516 7.03485 13.6223 6.73851C13.493 6.44218 13.3038 6.17503 13.0664 5.95344L8.64258 1.82398C8.41977 1.61593 8.12479 1.5 7.81818 1.5C7.51156 1.5 7.21658 1.61593 6.99378 1.82398L2.56998 5.95344C2.33251 6.17503 2.14335 6.44218 2.01407 6.73851C1.8848 7.03485 1.81814 7.35413 1.81818 7.67681V12.3147C1.81818 12.6291 1.9446 12.9306 2.16965 13.1528C2.39469 13.3751 2.69992 13.5 3.01818 13.5H12.6182C12.9364 13.5 13.2417 13.3751 13.4667 13.1528C13.6917 12.9306 13.8182 12.6291 13.8182 12.3147Z" fill="white" stroke="white" stroke-width="1.2" stroke-linecap="round" stroke-linejoin="round"/>
</svg>
