<svg width="15" height="13" viewBox="0 0 15 13" fill="none" xmlns="http://www.w3.org/2000/svg">
<path d="M2.2461 9.4832C1.54375 8.5383 1.19439 7.44422 1.22899 6.34237C1.24414 6.33352 1.27181 6.32325 1.30914 6.32419C1.34102 6.325 1.36403 6.33354 1.37765 6.34099C1.33729 7.68361 1.84382 8.98313 2.78647 10.015C3.32821 10.608 3.99393 11.0914 4.73839 11.4456C3.71688 10.986 2.85881 10.3075 2.2461 9.4832ZM7.2891 0.867707L7.25157 0.306578L7.28974 0.86766C7.28953 0.867676 7.28931 0.867691 7.2891 0.867707ZM11.1064 1.63825C11.0918 1.63065 11.0771 1.6231 11.0624 1.61561C11.0911 1.62942 11.1196 1.64343 11.1481 1.65762C12.3096 2.2372 13.2244 3.09973 13.7853 4.11852C14.3452 5.13531 14.5306 6.26647 14.3256 7.3666C14.1204 8.46802 13.5299 9.50387 12.6141 10.3313C12.1221 10.7759 11.5494 11.1481 10.9198 11.4343C12.2192 10.8098 13.2477 9.80373 13.8058 8.57028C14.3737 7.31517 14.4096 5.9212 13.9051 4.64353C13.402 3.36936 12.4021 2.31116 11.1064 1.63825ZM2.8452 2.81433C3.36356 2.30644 3.98206 1.88531 4.66801 1.56768C4.03352 1.87862 3.45712 2.28466 2.96785 2.77447L2.96247 2.77986L2.95722 2.78538L2.77388 2.97848L1.84682 3.95489H1.76734L1.71824 3.9524C1.70029 3.94889 1.68692 3.94319 1.67806 3.93816V0.907025C1.68692 0.901996 1.70029 0.896298 1.71824 0.892785L1.75212 0.891065L1.78601 0.892785C1.80395 0.896295 1.8173 0.901987 1.82616 0.907013L1.82529 2.3854L1.82444 3.81446L2.8452 2.81433ZM7.51724 4.00912C7.5261 4.00409 7.53946 3.99839 7.55741 3.99488L7.59582 3.99293L7.62359 3.99457C7.64234 3.99805 7.65624 4.00394 7.66536 4.00912V6.49138V7.05544H7.60905L7.55895 7.05247C7.54025 7.04901 7.52638 7.04315 7.51724 7.03799V4.00912Z" fill="white" stroke="white" stroke-width="1.2"/>
</svg>
