<svg width="14" height="13" viewBox="0 0 14 13" fill="none" xmlns="http://www.w3.org/2000/svg">
<path fill-rule="evenodd" clip-rule="evenodd" d="M1.2121 0.5H1.9621V11.75H13.2121V12.5H1.2121V0.5ZM12.3248 2.83475C12.363 2.86596 12.3946 2.90437 12.4179 2.94781C12.4412 2.99124 12.4557 3.03883 12.4605 3.08787C12.4654 3.13691 12.4606 3.18642 12.4463 3.23359C12.432 3.28075 12.4086 3.32464 12.3773 3.36275L9.00235 7.48775C8.96917 7.52824 8.92789 7.56134 8.88116 7.58491C8.83443 7.60848 8.78327 7.62201 8.731 7.62463C8.67872 7.62724 8.62647 7.61888 8.57762 7.60009C8.52877 7.58129 8.48439 7.55248 8.44735 7.5155L6.5071 5.57525L3.7651 9.3455C3.70511 9.42177 3.6179 9.47183 3.52178 9.48514C3.42567 9.49845 3.32813 9.47399 3.24968 9.4169C3.17122 9.3598 3.11795 9.27452 3.10106 9.17897C3.08416 9.08341 3.10497 8.98503 3.1591 8.9045L6.1591 4.7795C6.19094 4.73564 6.23191 4.6992 6.27919 4.67269C6.32648 4.64619 6.37894 4.63025 6.43298 4.62597C6.48701 4.62169 6.54133 4.62918 6.59219 4.64792C6.64305 4.66665 6.68925 4.69619 6.7276 4.7345L8.68435 6.692L11.7968 2.88725C11.8281 2.84911 11.8665 2.8175 11.9099 2.79422C11.9533 2.77094 12.0009 2.75644 12.05 2.75157C12.099 2.74669 12.1485 2.75153 12.1957 2.7658C12.2429 2.78007 12.2867 2.8035 12.3248 2.83475V2.83475Z" fill="white" stroke="white" stroke-width="0.5"/>
</svg>
