<svg width="16" height="14" viewBox="0 0 16 14" fill="none" xmlns="http://www.w3.org/2000/svg">
<path d="M1.28555 5.46544C1.31829 5.15793 1.50351 4.871 1.80432 4.66179C2.10513 4.45258 2.49945 4.33644 2.90876 4.3365H12.7245C13.1338 4.33644 13.5282 4.45258 13.829 4.66179C14.1298 4.871 14.315 5.15793 14.3477 5.46544L15.0014 11.6009C15.0194 11.7698 14.9908 11.9396 14.9174 12.0997C14.8441 12.2598 14.7275 12.4068 14.5751 12.5312C14.4227 12.6557 14.2378 12.7551 14.0319 12.8231C13.8261 12.891 13.6038 12.9262 13.379 12.9262H2.25426C2.02952 12.9262 1.80723 12.891 1.60138 12.8231C1.39553 12.7551 1.21058 12.6557 1.05818 12.5312C0.905778 12.4068 0.789222 12.2598 0.715853 12.0997C0.642483 11.9396 0.613887 11.7698 0.631866 11.6009L1.28555 5.46544V5.46544Z" stroke="white" stroke-linecap="round" stroke-linejoin="round"/>
<path d="M11.0721 6.17705V3.10929C11.0721 2.4584 10.7291 1.83416 10.1184 1.37391C9.50776 0.913658 8.67954 0.65509 7.81594 0.65509C6.95235 0.65509 6.12412 0.913658 5.51347 1.37391C4.90282 1.83416 4.55975 2.4584 4.55975 3.10929V6.17705" stroke="white" stroke-linecap="round" stroke-linejoin="round"/>
</svg>
